<?xml version="1.0" encoding="UTF-8" standalone="no"?>
<svg
   version="1.1"
   width="240"
   height="240"
   id="svg5"
   sodipodi:docname="appicon.svg"
   inkscape:version="1.3.2 (091e20e, 2023-11-25, custom)"
   xmlns:inkscape="http://www.inkscape.org/namespaces/inkscape"
   xmlns:sodipodi="http://sodipodi.sourceforge.net/DTD/sodipodi-0.dtd"
   xmlns="http://www.w3.org/2000/svg"
   xmlns:svg="http://www.w3.org/2000/svg">
  <defs
     id="defs5" />
  <sodipodi:namedview
     id="namedview5"
     pagecolor="#ffffff"
     bordercolor="#000000"
     borderopacity="0.25"
     inkscape:showpageshadow="2"
     inkscape:pageopacity="0.0"
     inkscape:pagecheckerboard="0"
     inkscape:deskcolor="#d1d1d1"
     inkscape:zoom="2.4188944"
     inkscape:cx="130.43149"
     inkscape:cy="97.771941"
     inkscape:window-width="1920"
     inkscape:window-height="1017"
     inkscape:window-x="-8"
     inkscape:window-y="-8"
     inkscape:window-maximized="1"
     inkscape:current-layer="svg5" />
  <path
     d="M0 0 C79.2 0 158.4 0 240 0 C240 79.2 240 158.4 240 240 C160.8 240 81.6 240 0 240 C0 160.8 0 81.6 0 0 Z "
     fill="#000000"
     id="path1"
     transform="translate(0,0)" />
  <g
     id="g6"
     transform="matrix(0.64,0,0,0.64,43.597793,38.586797)">
    <path
       d="m 0,0 c 4.4207475,1.2141878 8.6673943,2.5666469 12.9375,4.25 3.740172,1.4631689 7.482526,2.9134872 11.25,4.3046875 1.05973,0.3920361 1.05973,0.3920361 2.140869,0.7919922 1.370645,0.5058012 2.742183,1.0091933 4.114746,1.5097653 C 34.437282,12.335354 38.225485,14.028151 42,16 c 0,2.31 0,4.62 0,7 4.29,0 8.58,0 13,0 -1.32,3.63 -2.64,7.26 -4,11 -2.31,0 -4.62,0 -7,0 0,10.56 0,21.12 0,32 9.771558,0.07279 19.541223,0.107244 29.313011,0.07516 4.538065,-0.01339 9.074848,-0.01031 13.61277,0.03104 4.38379,0.03933 8.765562,0.03457 13.149369,-1.24e-4 1.66806,-0.0056 3.33625,0.0044 5.00412,0.03069 9.32798,0.359434 9.32798,0.359434 17.68991,-3.111803 C 124.78754,60.777619 126.40842,58.56049 128,56 c 0.80309,-0.956484 1.60617,-1.912969 2.43359,-2.898438 0.66129,-0.817265 1.32258,-1.634531 2.00391,-2.476562 3.91253,-4.824324 7.85566,-9.622104 11.8125,-14.410156 1.77065,-2.086466 1.77065,-2.086466 2.75,-4.214844 -0.91137,0.291328 -1.82273,0.582656 -2.76172,0.882812 -8.08924,2.567004 -16.20795,5.018281 -24.36328,7.367188 -0.88776,0.257974 -1.77552,0.515947 -2.69019,0.781738 C 114.79622,41.714455 112.40051,42.360757 110,43 c -1.07637,0.311953 -2.15273,0.623906 -3.26172,0.945312 C 102.698,44.026003 101.22333,42.328781 98.3125,39.625 93.573514,35.059627 91.292239,31.378714 90,25 c -0.495,-0.99 -0.495,-0.99 -1,-2 12.46361,-1.244633 12.46361,-1.244633 16.24219,1.816406 1.69531,2.246094 1.69531,2.246094 3.03515,4.53125 1.66923,1.981599 1.66923,1.981599 4.58594,1.660156 5.91736,-1.230296 11.65751,-3.301949 17.38672,-5.195312 2.52852,-0.824596 5.05717,-1.648814 7.58594,-2.472656 1.22944,-0.402349 2.45888,-0.804698 3.72558,-1.219239 5.16295,-1.682612 10.34053,-3.316908 15.52369,-4.936035 4.28812,-1.342893 8.56049,-2.725141 12.82495,-4.141601 1.50361,-0.493792 1.50361,-0.493792 3.03759,-0.997559 1.95169,-0.641636 3.90074,-1.291349 5.84668,-1.950195 0.88124,-0.2879445 1.76247,-0.5758888 2.67041,-0.8725587 0.77981,-0.2603101 1.55961,-0.5206202 2.36304,-0.7888184 3.16268,-0.6316821 5.23468,-0.04265 7.9104,1.6950681 4.11213,3.744796 4.11213,3.744796 4.52734,6.871094 -0.42036,4.2683 -1.74302,7.490298 -4.26562,11 -0.7425,-0.66 -1.485,-1.32 -2.25,-2 -4.04486,-2.635868 -8.04926,-2.870789 -12.79297,-2.695313 C 171.47534,24.593646 169.1367,28.600974 166,33 c -1.46788,1.821652 -2.94741,3.633973 -4.4375,5.4375 -0.74895,0.922969 -1.49789,1.845937 -2.26953,2.796875 -2.96377,3.574694 -6.06145,7.012572 -9.1875,10.445312 -1.83465,2.021855 -3.63316,4.067098 -5.41797,6.132813 -3.78979,4.363187 -7.73526,8.581529 -11.68872,12.796143 C 130.1747,73.567644 130.1747,73.567644 128,77 95.99,77 63.98,77 31,77 31,67.43 31,57.86 31,48 27.7,47.01 24.4,46.02 21,45 17.819678,43.880132 14.656818,42.743746 11.5,41.5625 10.678464,41.257556 9.8569287,40.952612 9.0104981,40.638428 3.3048662,38.51187 -2.3676208,36.314134 -8,34 -7.4220935,26.324425 -5.5868269,19.313309 -3.4375,11.9375 -3.1081445,10.785723 -2.7787891,9.6339453 -2.4394531,8.4472656 -1.6327331,5.6295913 -0.81945719,2.8139911 0,0 Z"
       fill="#d92020"
       transform="translate(25,97)"
       id="path2" />
    <path
       d="M 0,0 C 0.99,0.03287109 0.99,0.03287109 2,0.06640625 2.66,0.06511719 3.32,0.06382813 4,0.0625 c 2,0.56640625 2,0.56640625 6,4.5664062 0,3.9600001 0,7.9199998 0,11.9999998 10.23,0 20.46,0 31,0 0,3.3 0,6.6 0,10 -10.23,0 -20.46,0 -31,0 0,3.96 0,7.92 0,12 10.23,0 20.46,0 31,0 0,3.63 0,7.26 0,11 -10.23,0 -20.46,0 -31,0 0,3.96 0,7.92 0,12 10.23,0 20.46,0 31,0 0,3.3 0,6.6 0,10 -10.23,0 -20.46,0 -31,0 0.02739,10.085945 0.02739,10.085945 3.0625,14.0625 2.794745,4.237195 2.614978,7.996871 1.9375,12.9375 -1.281333,3.169614 -2.520023,4.578204 -5.0625,6.812504 -4.3480383,1.75771 -8.313589,1.847 -12.9375,1.1875 -3.7626642,-1.77872 -5.5179646,-3.33137 -7.9375,-6.687504 -1.376874,-4.292605 -1.435624,-7.998039 -0.0625,-12.3125 0.664794,-0.71547 1.3295874,-1.43094 2.0145264,-2.168091 2.466363,-3.517808 2.5353574,-6.249594 2.4678955,-10.388549 0.00391,-0.743724 0.00782,-1.487448 0.011856,-2.253708 0.00596,-1.608512 0.00283,-3.217078 -0.00842,-4.825562 -0.017291,-2.547722 -0.00974,-5.094313 0.00426,-7.642044 0.025322,-5.407426 0.019835,-10.814584 0.00989,-16.222046 -0.01153,-6.267637 -0.01037,-12.534724 0.024063,-18.802292 0.00709,-2.50685 -0.00958,-5.012826 -0.027115,-7.519607 0.00571,-1.540492 0.012526,-3.080979 0.02063,-4.62146 -0.011315,-0.694175 -0.022629,-1.388351 -0.034286,-2.103562 C -6.4546727,6.1422915 -5.1241342,1.6113 0,0 Z"
       fill="#dd2121"
       transform="translate(97,40.371094)"
       id="path3" />
    <path
       d="M 0,0 C 0.66,0 1.32,0 2,0 2.8169018,2.2276399 3.6286187,4.4569486 4.4375,6.6875 4.6675977,7.3133398 4.8976953,7.9391797 5.1347656,8.5839844 7.441082,14.968136 9.6115798,21.809892 7.0625,28.4375 4.1517432,30.642619 1.7269423,30.439545 -1.84375,30.433594 -4.5415548,29.8911 -5.423419,29.246628 -7,27 -9.0371822,17.10269 -4.335897,8.570488 0,0 Z"
       fill="#d92020"
       transform="translate(217,128)"
       id="path4" />
    <path
       d="m 0,0 c 4.6576231,0.73348396 8.8668067,2.3287105 13.25,4 0.732188,0.2732812 1.464375,0.5465625 2.21875,0.828125 C 20.867746,6.8677455 20.867746,6.8677455 22,8 c 0.141152,2.670589 0.04247,5.324322 0,8 C 13.394928,14.432533 4.9273591,11.687144 -3,8 -2.4527632,4.6253728 -1.9451,2.91765 0,0 Z"
       fill="#050202"
       transform="translate(34,114)"
       id="path5" />
  </g>
  <rect
     style="fill:#fbfbfb;fill-opacity:0;stroke-width:1.05361"
     id="rect1"
     width="197.53313"
     height="147.07315"
     x="21.133371"
     y="35.977146" />
</svg>
