<?xml version="1.0" encoding="UTF-8" standalone="no"?>
<svg
   version="1.1"
   width="240"
   height="240"
   id="svg5"
   sodipodi:docname="appiconfg.svg"
   inkscape:version="1.3.2 (091e20e, 2023-11-25, custom)"
   xmlns:inkscape="http://www.inkscape.org/namespaces/inkscape"
   xmlns:sodipodi="http://sodipodi.sourceforge.net/DTD/sodipodi-0.dtd"
   xmlns="http://www.w3.org/2000/svg"
   xmlns:svg="http://www.w3.org/2000/svg">
  <defs
     id="defs5" />
  <sodipodi:namedview
     id="namedview5"
     pagecolor="#2480c9"
     bordercolor="#000000"
     borderopacity="0.25"
     inkscape:showpageshadow="2"
     inkscape:pageopacity="0.0"
     inkscape:pagecheckerboard="0"
     inkscape:deskcolor="#d1d1d1"
     inkscape:zoom="3.4208333"
     inkscape:cx="120"
     inkscape:cy="119.41535"
     inkscape:window-width="1920"
     inkscape:window-height="1017"
     inkscape:window-x="-8"
     inkscape:window-y="-8"
     inkscape:window-maximized="1"
     inkscape:current-layer="svg5" />
  <rect
     style="fill:#fbfbfb;fill-opacity:0;stroke-width:1.01085"
     id="rect1"
     width="193.81242"
     height="137.97809"
     x="24.555422"
     y="38.58709" />
  <g
     id="g1"
     transform="matrix(0.8,0,0,0.8,24.27517,21.46515)">
    <path
       id="path2"
       d="m 0,0 c -3.1249134,10.555034 -6.5142563,21.061852 -8,32 1.5625646,0.674744 3.1258607,1.347827 4.6914062,2.015625 L -1,35 c 6.0388241,2.606687 12.057775,5.079282 18.3125,7.125 C 21.736686,43.519513 25.675115,45.146478 30,47 l 1,27 c 11.24475,0.184905 22.488518,0.343123 33.734375,0.439453 5.738351,0.0453 11.477022,0.08543 17.214844,0.177735 5.615908,0.09977 11.230915,0.188401 16.847656,0.222656 2.140925,0.009 4.280995,0.02226 6.421875,0.03906 6.5722,0.151291 13.16496,0.426563 19.70508,-0.373047 4.29415,-1.046809 6.53661,-3.738789 8.86133,-7.310547 5.2153,-7.236675 5.21512,-7.236383 11.55664,-13.646484 C 150.10843,48.419518 154.84056,43.3101 159.1875,37.8125 164.58068,30.988482 169.18523,23.243759 178,21 c 4.31243,0.07435 6.3981,0.577391 9.9375,3.0625 L 190,26 c 2.66418,-2.664185 2.66419,-2.664194 3.94141,-9.515625 C 194,14.000002 194,13.999997 191.875,10.9375 188.71701,8.8092864 186.73018,7.6756805 182.92969,8.390625 l -2.19531,0.71875 -2.44922,0.7890625 L 175.75,10.75 c -3.2608,1.054512 -6.51569,2.116587 -9.75,3.25 -4.95406,1.882075 -9.91044,3.666716 -14.95312,5.296875 l -2.51563,0.804687 c -1.8058,0.578706 -3.6118,1.156814 -5.41797,1.734376 -2.81218,0.895299 -5.62315,1.792405 -8.43164,2.699218 -1.8478,0.596669 -3.69699,1.191065 -5.54687,1.78125 l -2.66602,0.847656 c -4.61217,1.498369 -9.1357,2.897885 -13.94141,3.617188 -3.50064,0.632989 -3.50163,0.632255 -5.41796,-1.433594 C 105.60136,26.812637 104.22458,24.94808 102,23 c -4.084124,-0.703805 -7.897617,-0.485011 -12,0 1.673681,7.531562 4.984525,12.185311 11,17 2.40962,1.564529 3.50529,2.073329 6.38672,1.648438 l 2.65625,-0.84375 2.98242,-0.916016 c 2.1261,-0.681724 4.25646,-1.349826 6.39063,-2.00586 l 3.25195,-0.988281 C 130.36359,34.549962 138.14495,32.718292 146,31 c 0.19445,2.138848 0.19445,2.138852 -1.43359,3.996094 L 142.5625,37.4375 140.33594,40.160156 138,43 c -1.4356,1.79319 -2.87311,3.584855 -4.3125,5.375 -1.57403,1.865327 -3.13498,3.741735 -4.6875,5.625 -2.39034,3.314866 -4.782,6.529616 -7.65039,9.443359 -8.43304,4.312302 -8.4349,4.312632 -18.1875,3.855469 -1.60905,-0.06215 -3.217994,-0.10158 -4.828126,-0.121094 -4.243766,-0.02512 -8.482605,-0.09059 -12.724609,-0.216796 C 81.225556,66.829999 76.842444,66.754385 72.457031,66.703125 65.925997,66.627699 59.394574,66.53261 52.865234,66.363281 l -2.132812,-0.05859 C 48.208078,66.237644 44.89538,66.89538 43,65 42.938109,63.336657 42.886522,61.672307 42.886719,60.007812 l 0.01563,-2.105468 c 0.0044,-2.21659 0.0094,-4.433828 0.02148,-6.650391 0.0086,-1.545237 0.01644,-3.089513 0.02148,-4.634765 C 42.957406,42.078164 42.975346,37.538973 43,33 l 6,-1 3,-9 -11,-1 -0.597656,-3.300781 C 38.999757,14.999027 39.000241,15.000975 36.162109,13.152344 L 32.558594,11.796875 C 30.553076,11.017638 28.546905,10.246679 26.525391,9.5097656 25.141705,9.0064309 23.762669,8.4928593 22.386719,7.96875 14.988687,5.120272 7.5456571,2.4346208 0,0 Z m 8,15 c 3.90351,0.896214 7.69574,2.133999 11.5,3.375 l 2.011719,0.632812 C 28.326303,21.238535 28.326312,21.23854 31,24 c 0.527996,2.76142 0.18599,5.163658 0,8 -5.379075,1.906835 -10.090464,-0.813064 -15.1875,-2.6875 L 12.712891,28.244141 9.7695312,27.175781 7.0703125,26.205078 C 5.0007345,25.000734 4.9992667,24.999266 4.0800781,23.066406 3.9468925,19.65951 6.0260438,17.631942 8,15 Z"
       transform="translate(26,98)"
       style="fill:#e42222;fill-opacity:1" />
    <path
       d="M 0,0 C 1.0209375,-0.01160156 1.0209375,-0.01160156 2.0625,-0.0234375 4,0.375 4,0.375 7,3.375 c 0.33,3.96 0.66,7.92 1,12 9.57,0.33 19.14,0.66 29,1 0,2.64 0,5.28 0,8 -0.842966,0.02506 -1.685933,0.05011 -2.554443,0.07593 -3.117974,0.09495 -6.235772,0.194196 -9.353516,0.296386 -1.351182,0.0434 -2.702422,0.08507 -4.053711,0.125 -1.938697,0.05759 -3.877193,0.121829 -5.815674,0.18628 -1.16781,0.03666 -2.33562,0.07332 -3.538818,0.111084 C 9.082202,25.075762 9.082202,25.075762 8,26.375 c -0.098512,1.831159 -0.1297263,3.666199 -0.125,5.5 -0.00258,1.000312 -0.00516,2.000625 -0.00781,3.03125 C 7.7212962,37.318996 7.7212962,37.318996 9,38.375 c 2.070847,0.158426 4.14678,0.251244 6.222656,0.316406 1.890088,0.06284 1.890088,0.06284 3.81836,0.126953 1.340491,0.03982 2.680986,0.07953 4.021484,0.119141 1.344415,0.04318 2.688817,0.0868 4.033203,0.130859 3.30132,0.106495 6.602719,0.208506 9.904297,0.306641 0,2.64 0,5.28 0,8 -9.57,0.33 -19.14,0.66 -29,1 0,3.63 0,7.26 0,11 1.8321965,1.832196 4.757137,1.239013 7.222656,1.316406 1.890088,0.06284 1.890088,0.06284 3.81836,0.126953 1.340491,0.03982 2.680986,0.07953 4.021484,0.119141 1.344415,0.04318 2.688817,0.0868 4.033203,0.130859 3.30132,0.106495 6.602719,0.208506 9.904297,0.306641 0,2.64 0,5.28 0,8 -9.57,0.33 -19.14,0.66 -29,1 -0.5805933,11.038893 -0.5805933,11.038893 4,18 0.938036,4.437632 0.33201,7.359696 -1.75,11.375 -2.6764162,3.12249 -4.5874698,4.31499 -8.6171875,5.06641 -3.6390844,0.17572 -6.4671836,0.29284 -9.6171875,-1.69141 C -11.094901,99.925602 -12.3652,97.220868 -12.5,92.75 c 0.329347,-4.603014 1.174603,-8.049603 4.5,-11.375 0.2015441,-2.482575 0.2800792,-4.855577 0.2712402,-7.3396 0.00523,-0.756251 0.010453,-1.512503 0.015839,-2.291671 0.010253,-1.644571 0.016023,-3.289174 0.017881,-4.933775 0.00365,-2.601322 0.02035,-5.202259 0.040758,-7.8035 0.055516,-7.396528 0.086122,-14.793114 0.1105804,-22.189804 0.015855,-4.521704 0.046054,-9.043136 0.084765,-13.564699 0.011669,-1.725174 0.01758,-3.450396 0.017681,-5.175609 1.916e-4,-2.411073 0.018423,-4.821392 0.040621,-7.232348 -0.00458,-0.71543 -0.00915,-1.4308592 -0.01387,-2.1679686 0.042788,-2.9161659 0.080004,-4.8383497 1.8184509,-7.2429352 C -3.6060137,0.1138102 -2.3767739,-0.02700879 0,0 Z"
       fill="#e42222"
       transform="translate(99,41.625)"
       id="path3" />
    <path
       d="M 0,0 C 0.66,0 1.32,0 2,0 8.7843608,19.8482 8.7843608,19.8482 6.0078125,26.308594 5.6752344,26.866758 5.3426562,27.424922 5,28 c -1.4579288,0.054 -2.9164271,0.09279 -4.375,0.125 -1.21816406,0.0348 -1.21816406,0.0348 -2.4609375,0.07031 C -4,28 -4,28 -6,26 -6.687434,20.379216 -6.1789157,15.229398 -4,10 -3.2910136,8.2085917 -2.5827276,6.416906 -1.875,4.625 -1.2516901,3.0826492 -0.62726108,1.5407481 0,0 Z"
       fill="#e52727"
       transform="translate(217,129)"
       id="path5" />
  </g>
</svg>
