<?xml version="1.0" encoding="UTF-8" standalone="no"?>
<svg
   version="1.1"
   width="240"
   height="240"
   id="svg5"
   sodipodi:docname="oiltemp white.svg"
   inkscape:version="1.3.2 (091e20e, 2023-11-25, custom)"
   xmlns:inkscape="http://www.inkscape.org/namespaces/inkscape"
   xmlns:sodipodi="http://sodipodi.sourceforge.net/DTD/sodipodi-0.dtd"
   xmlns="http://www.w3.org/2000/svg"
   xmlns:svg="http://www.w3.org/2000/svg">
  <defs
     id="defs5" />
  <sodipodi:namedview
     id="namedview5"
     pagecolor="#2480c9"
     bordercolor="#000000"
     borderopacity="0.25"
     inkscape:showpageshadow="2"
     inkscape:pageopacity="0.0"
     inkscape:pagecheckerboard="0"
     inkscape:deskcolor="#d1d1d1"
     inkscape:zoom="3.4208333"
     inkscape:cx="119.85384"
     inkscape:cy="120"
     inkscape:window-width="1920"
     inkscape:window-height="1017"
     inkscape:window-x="-8"
     inkscape:window-y="-8"
     inkscape:window-maximized="1"
     inkscape:current-layer="svg5" />
  <path
     id="path2"
     d="M 0 0 C -3.1249134 10.555034 -6.5142563 21.061852 -8 32 C -6.4374354 32.674744 -4.8741393 33.347827 -3.3085938 34.015625 L -1 35 C 5.0388241 37.606687 11.057775 40.079282 17.3125 42.125 C 21.736686 43.519513 25.675115 45.146478 30 47 L 31 74 C 42.24475 74.184905 53.488518 74.343123 64.734375 74.439453 C 70.472726 74.484758 76.211397 74.524881 81.949219 74.617188 C 87.565127 74.716958 93.180134 74.805589 98.796875 74.839844 C 100.9378 74.848829 103.07787 74.862106 105.21875 74.878906 C 111.79095 75.030197 118.38371 75.305469 124.92383 74.505859 C 129.21798 73.45905 131.46044 70.76707 133.78516 67.195312 C 139.00046 59.958637 139.00028 59.958929 145.3418 53.548828 C 150.10843 48.419518 154.84056 43.3101 159.1875 37.8125 C 164.58068 30.988482 169.18523 23.243759 178 21 C 182.31243 21.074352 184.3981 21.577391 187.9375 24.0625 L 190 26 C 192.66418 23.335815 192.66419 23.335806 193.94141 16.484375 C 194 14.000002 194 13.999997 191.875 10.9375 C 188.71701 8.8092864 186.73018 7.6756805 182.92969 8.390625 L 180.73438 9.109375 L 178.28516 9.8984375 L 175.75 10.75 C 172.4892 11.804512 169.23431 12.866587 166 14 C 161.04594 15.882075 156.08956 17.666716 151.04688 19.296875 L 148.53125 20.101562 C 146.72545 20.680268 144.91945 21.258376 143.11328 21.835938 C 140.3011 22.731237 137.49013 23.628343 134.68164 24.535156 C 132.83384 25.131825 130.98465 25.726221 129.13477 26.316406 L 126.46875 27.164062 C 121.85658 28.662431 117.33305 30.061947 112.52734 30.78125 C 109.0267 31.414239 109.02571 31.413505 107.10938 29.347656 C 105.60136 26.812637 104.22458 24.94808 102 23 C 97.915876 22.296195 94.102383 22.514989 90 23 C 91.673681 30.531562 94.984525 35.185311 101 40 C 103.40962 41.564529 104.50529 42.073329 107.38672 41.648438 L 110.04297 40.804688 L 113.02539 39.888672 C 115.15149 39.206948 117.28185 38.538846 119.41602 37.882812 L 122.66797 36.894531 C 130.36359 34.549962 138.14495 32.718292 146 31 C 146.19445 33.138848 146.19445 33.138852 144.56641 34.996094 L 142.5625 37.4375 L 140.33594 40.160156 L 138 43 C 136.5644 44.79319 135.12689 46.584855 133.6875 48.375 C 132.11347 50.240327 130.55252 52.116735 129 54 C 126.60966 57.314866 124.218 60.529616 121.34961 63.443359 C 112.91657 67.755661 112.91471 67.755991 103.16211 67.298828 C 101.55306 67.236681 99.944116 67.197248 98.333984 67.177734 C 94.090218 67.152614 89.851379 67.087144 85.609375 66.960938 C 81.225556 66.829999 76.842444 66.754385 72.457031 66.703125 C 65.925997 66.627699 59.394574 66.53261 52.865234 66.363281 L 50.732422 66.304688 C 48.208078 66.237644 44.89538 66.89538 43 65 C 42.938109 63.336657 42.886522 61.672307 42.886719 60.007812 L 42.902344 57.902344 C 42.906768 55.685754 42.911747 53.468516 42.923828 51.251953 C 42.932464 49.706716 42.940273 48.16244 42.945312 46.617188 C 42.957406 42.078164 42.975346 37.538973 43 33 L 49 32 L 52 23 L 41 22 L 40.402344 18.699219 C 38.999757 14.999027 39.000241 15.000975 36.162109 13.152344 L 32.558594 11.796875 C 30.553076 11.017638 28.546905 10.246679 26.525391 9.5097656 C 25.141705 9.0064309 23.762669 8.4928593 22.386719 7.96875 C 14.988687 5.120272 7.5456571 2.4346208 0 0 z M 8 15 C 11.90351 15.896214 15.69574 17.133999 19.5 18.375 L 21.511719 19.007812 C 28.326303 21.238535 28.326312 21.23854 31 24 C 31.527996 26.76142 31.18599 29.163658 31 32 C 25.620925 33.906835 20.909536 31.186936 15.8125 29.3125 L 12.712891 28.244141 L 9.7695312 27.175781 L 7.0703125 26.205078 C 5.0007345 25.000734 4.9992667 24.999266 4.0800781 23.066406 C 3.9468925 19.65951 6.0260438 17.631942 8 15 z "
     transform="translate(26,98)"
     style="fill:#e42222;fill-opacity:1" />
  <path
     d="M0 0 C1.0209375 -0.01160156 1.0209375 -0.01160156 2.0625 -0.0234375 C4 0.375 4 0.375 7 3.375 C7.33 7.335 7.66 11.295 8 15.375 C17.57 15.705 27.14 16.035 37 16.375 C37 19.015 37 21.655 37 24.375 C36.15703369 24.40005615 35.31406738 24.4251123 34.44555664 24.45092773 C31.32758326 24.54588155 28.20978497 24.64512448 25.09204102 24.74731445 C23.74085853 24.79071223 22.38961947 24.8323837 21.03833008 24.87231445 C19.09963299 24.92989952 17.16113724 24.99414298 15.22265625 25.05859375 C14.05484619 25.09525146 12.88703613 25.13190918 11.68383789 25.16967773 C9.08220205 25.07576188 9.08220205 25.07576188 8 26.375 C7.90148829 28.20615883 7.87027371 30.04119933 7.875 31.875 C7.87242188 32.8753125 7.86984375 33.875625 7.8671875 34.90625 C7.72129618 37.31899622 7.72129618 37.31899622 9 38.375 C11.0708472 38.5334265 13.14678029 38.62624422 15.22265625 38.69140625 C17.11274414 38.75424805 17.11274414 38.75424805 19.04101562 38.81835938 C20.38150736 38.85817596 21.7220022 38.89788814 23.0625 38.9375 C24.40691523 38.98068042 25.7513166 39.02429456 27.09570312 39.06835938 C30.3970234 39.17485358 33.69842236 39.2768646 37 39.375 C37 42.015 37 44.655 37 47.375 C27.43 47.705 17.86 48.035 8 48.375 C8 52.005 8 55.635 8 59.375 C9.83219646 61.20719646 12.75713741 60.61401328 15.22265625 60.69140625 C17.11274414 60.75424805 17.11274414 60.75424805 19.04101562 60.81835938 C20.38150736 60.85817596 21.7220022 60.89788814 23.0625 60.9375 C24.40691523 60.98068042 25.7513166 61.02429456 27.09570312 61.06835938 C30.3970234 61.17485358 33.69842236 61.2768646 37 61.375 C37 64.015 37 66.655 37 69.375 C27.43 69.705 17.86 70.035 8 70.375 C7.41940671 81.41389317 7.41940671 81.41389317 12 88.375 C12.93803611 92.81263235 12.3320095 95.73469597 10.25 99.75 C7.57358378 102.87248559 5.66253025 104.06499023 1.6328125 104.81640625 C-2.00627191 104.99212528 -4.8343711 105.10925442 -7.984375 103.125 C-11.09490051 99.92560233 -12.36519995 97.22086849 -12.5 92.75 C-12.1706532 88.14698646 -11.32539676 84.70039676 -8 81.375 C-7.79845591 78.89242493 -7.71992076 76.51942333 -7.72875977 74.03540039 C-7.72353302 73.27914871 -7.71830627 72.52289703 -7.71292114 71.74372864 C-7.70266782 70.09915815 -7.69689842 68.45455509 -7.69503975 66.80995369 C-7.69138655 64.20863202 -7.67468946 61.60769521 -7.65428162 59.00645447 C-7.59876554 51.60992579 -7.56815995 44.21334 -7.54370117 36.81665039 C-7.52784572 32.29494612 -7.49764751 27.77351449 -7.45893669 23.25195122 C-7.44726792 21.52677742 -7.44135618 19.80155489 -7.44125557 18.07634163 C-7.44106399 15.66526881 -7.42283283 13.25495013 -7.40063477 10.84399414 C-7.40521194 10.12856445 -7.40978912 9.41313477 -7.414505 8.67602539 C-7.37171709 5.75985948 -7.33450146 3.8376757 -5.59605408 1.43309021 C-3.6060137 0.1138102 -2.37677386 -0.02700879 0 0 Z "
     fill="#E42222"
     transform="translate(99,41.625)"
     id="path3" />
  <path
     d="M0 0 C0.66 0 1.32 0 2 0 C8.78436083 19.84819981 8.78436083 19.84819981 6.0078125 26.30859375 C5.67523438 26.86675781 5.34265625 27.42492187 5 28 C3.54207116 28.05399736 2.08357288 28.09279177 0.625 28.125 C-0.59316406 28.15980469 -0.59316406 28.15980469 -1.8359375 28.1953125 C-4 28 -4 28 -6 26 C-6.68743405 20.37921567 -6.17891565 15.22939757 -4 10 C-3.29101362 8.20859165 -2.58272759 6.41690603 -1.875 4.625 C-1.2516901 3.08264923 -0.62726108 1.54074808 0 0 Z "
     fill="#E52727"
     transform="translate(217,129)"
     id="path5" />
</svg>
