<?xml version="1.0" encoding="UTF-8"?>
<svg version="1.1" xmlns="http://www.w3.org/2000/svg" width="240" height="240">
<path d="M0 0 C79.2 0 158.4 0 240 0 C240 79.2 240 158.4 240 240 C160.8 240 81.6 240 0 240 C0 160.8 0 81.6 0 0 Z " fill="#000000" transform="translate(0,0)"/>
<path d="M0 0 C4.42074755 1.21418784 8.66739426 2.56664688 12.9375 4.25 C16.67767152 5.71316895 20.4200259 7.1634872 24.1875 8.5546875 C25.24723022 8.94672363 25.24723022 8.94672363 26.32836914 9.34667969 C27.69901431 9.85248092 29.07055172 10.35587315 30.44311523 10.85644531 C34.43728177 12.33535413 38.22548491 14.02815132 42 16 C42 18.31 42 20.62 42 23 C46.29 23 50.58 23 55 23 C53.68 26.63 52.36 30.26 51 34 C48.69 34 46.38 34 44 34 C44 44.56 44 55.12 44 66 C53.77155832 66.07279212 63.54122322 66.10724441 73.31301117 66.07515812 C77.85107617 66.06176975 82.38785874 66.06484683 86.92578125 66.10620117 C91.30957063 66.14553433 95.69134305 66.14076905 100.07514954 66.10607719 C101.74321154 66.10050003 103.41140455 66.11052222 105.07926941 66.13676643 C114.407245 66.49619959 114.407245 66.49619959 122.7691803 63.02496338 C124.78754021 60.77761881 126.40841636 58.56049035 128 56 C128.80308594 55.04351562 129.60617188 54.08703125 130.43359375 53.1015625 C131.09488281 52.28429687 131.75617188 51.46703125 132.4375 50.625 C136.35003337 45.80067625 140.29315909 41.00289603 144.25 36.21484375 C146.02064794 34.12837766 146.02064794 34.12837766 147 32 C146.08863281 32.29132813 145.17726562 32.58265625 144.23828125 32.8828125 C136.1490366 35.44981644 128.0303314 37.90109279 119.875 40.25 C118.98723877 40.50797363 118.09947754 40.76594727 117.18481445 41.03173828 C114.79621561 41.71445466 112.40051459 42.36075732 110 43 C108.92363281 43.31195313 107.84726563 43.62390625 106.73828125 43.9453125 C102.69800434 44.02600277 101.22332678 42.32878053 98.3125 39.625 C93.57351408 35.05962686 91.29223941 31.37871371 90 25 C89.505 24.01 89.505 24.01 89 23 C101.46361457 21.7553672 101.46361457 21.7553672 105.2421875 24.81640625 C106.9375 27.0625 106.9375 27.0625 108.27734375 29.34765625 C109.94656511 31.32925497 109.94656511 31.32925497 112.86328125 31.0078125 C118.78064434 29.77751573 124.52079164 27.7058633 130.25 25.8125 C132.77852277 24.9879038 135.30716887 24.16368567 137.8359375 23.33984375 C139.06538086 22.93749512 140.29482422 22.53514648 141.56152344 22.12060547 C146.72446902 20.43799256 151.90205323 18.80369695 157.08520508 17.18457031 C161.37332978 15.84167675 165.645699 14.45942916 169.91015625 13.04296875 C171.41376709 12.54917725 171.41376709 12.54917725 172.94775391 12.04541016 C174.8994383 11.40377359 176.84849149 10.75406142 178.79443359 10.09521484 C179.67566895 9.80727051 180.5569043 9.51932617 181.46484375 9.22265625 C182.244646 8.96234619 183.02444824 8.70203613 183.82788086 8.43383789 C186.99055697 7.80215581 189.06255572 8.39118787 191.73828125 10.12890625 C195.8504135 13.87370162 195.8504135 13.87370162 196.265625 17 C195.84526214 21.26829985 194.52259859 24.49029761 192 28 C191.2575 27.34 190.515 26.68 189.75 26 C185.70514099 23.36413216 181.70073864 23.12921127 176.95703125 23.3046875 C171.47533841 24.59364566 169.13669666 28.6009742 166 33 C164.5321185 34.8216515 163.05259379 36.63397269 161.5625 38.4375 C160.81355469 39.36046875 160.06460938 40.2834375 159.29296875 41.234375 C156.32920396 44.80906916 153.23152249 48.2469469 150.10546875 51.6796875 C148.27082315 53.70154184 146.47231214 55.74678522 144.6875 57.8125 C140.89770965 62.17568652 136.95224259 66.39402873 132.9987793 70.60864258 C130.17470002 73.56764405 130.17470002 73.56764405 128 77 C95.99 77 63.98 77 31 77 C31 67.43 31 57.86 31 48 C27.7 47.01 24.4 46.02 21 45 C17.81967769 43.8801316 14.65681784 42.74374618 11.5 41.5625 C10.67846436 41.25755615 9.85692871 40.9526123 9.01049805 40.63842773 C3.30486618 38.51187037 -2.36762075 36.31413359 -8 34 C-7.42209354 26.32442541 -5.58682691 19.31330898 -3.4375 11.9375 C-3.10814453 10.78572266 -2.77878906 9.63394531 -2.43945312 8.44726562 C-1.6327331 5.62959134 -0.81945719 2.81399107 0 0 Z " fill="#D92020" transform="translate(25,97)"/>
<path d="M0 0 C0.99 0.03287109 0.99 0.03287109 2 0.06640625 C2.66 0.06511719 3.32 0.06382813 4 0.0625 C6 0.62890625 6 0.62890625 10 4.62890625 C10 8.58890625 10 12.54890625 10 16.62890625 C20.23 16.62890625 30.46 16.62890625 41 16.62890625 C41 19.92890625 41 23.22890625 41 26.62890625 C30.77 26.62890625 20.54 26.62890625 10 26.62890625 C10 30.58890625 10 34.54890625 10 38.62890625 C20.23 38.62890625 30.46 38.62890625 41 38.62890625 C41 42.25890625 41 45.88890625 41 49.62890625 C30.77 49.62890625 20.54 49.62890625 10 49.62890625 C10 53.58890625 10 57.54890625 10 61.62890625 C20.23 61.62890625 30.46 61.62890625 41 61.62890625 C41 64.92890625 41 68.22890625 41 71.62890625 C30.77 71.62890625 20.54 71.62890625 10 71.62890625 C10.02738983 81.71485128 10.02738983 81.71485128 13.0625 85.69140625 C15.85724527 89.92860068 15.67747764 93.68827661 15 98.62890625 C13.71866686 101.79851981 12.4799767 103.20710854 9.9375 105.44140625 C5.58946175 107.19912384 1.62391102 107.28840638 -3 106.62890625 C-6.76266417 104.85019228 -8.51796464 103.29753594 -10.9375 99.94140625 C-12.31437353 95.64880053 -12.37312417 91.94336744 -11 87.62890625 C-10.3352063 86.91343628 -9.6704126 86.19796631 -8.98547363 85.46081543 C-6.51911059 81.94300687 -6.4501162 79.21122114 -6.51757812 75.07226562 C-6.51366562 74.32854202 -6.50975311 73.58481842 -6.50572205 72.81855774 C-6.49976164 71.21004582 -6.50289075 69.6014798 -6.5141449 67.99299622 C-6.53143584 65.44527368 -6.52388448 62.8986829 -6.5098877 60.35095215 C-6.4845658 54.94352607 -6.49005254 49.53636752 -6.5 44.12890625 C-6.51152982 37.86126889 -6.5103698 31.5941824 -6.47593689 25.32661438 C-6.46884787 22.81976403 -6.48551246 20.31378816 -6.50305176 17.80700684 C-6.4973434 16.26651541 -6.49052588 14.72602756 -6.48242188 13.18554688 C-6.49373642 12.49137161 -6.50505096 11.79719635 -6.51670837 11.08198547 C-6.45467267 6.14229146 -5.12413419 1.61130001 0 0 Z " fill="#DD2121" transform="translate(97,40.37109375)"/>
<path d="M0 0 C0.66 0 1.32 0 2 0 C2.81690177 2.22763988 3.62861872 4.4569486 4.4375 6.6875 C4.66759766 7.31333984 4.89769531 7.93917969 5.13476562 8.58398438 C7.44108204 14.9681356 9.61157982 21.80989248 7.0625 28.4375 C4.15174319 30.6426188 1.72694231 30.4395449 -1.84375 30.43359375 C-4.54155481 29.89110039 -5.42341898 29.24662796 -7 27 C-9.03718223 17.10268966 -4.33589702 8.57048804 0 0 Z " fill="#D92020" transform="translate(217,128)"/>
<path d="M0 0 C4.65762312 0.73348396 8.86680674 2.32871048 13.25 4 C13.9821875 4.27328125 14.714375 4.5465625 15.46875 4.828125 C20.86774554 6.86774554 20.86774554 6.86774554 22 8 C22.14115161 10.67058851 22.04247107 13.32432238 22 16 C13.39492792 14.43253334 4.9273591 11.68714377 -3 8 C-2.45276317 4.62537285 -1.9451 2.91765 0 0 Z " fill="#050202" transform="translate(34,114)"/>
</svg>
